<svg width="17" height="17" viewBox="0 0 17 17" fill="none" xmlns="http://www.w3.org/2000/svg">
<path d="M11.0447 2.14426C10.3986 1.44666 9.49613 1.0625 8.50003 1.0625C7.49863 1.0625 6.59318 1.44434 5.95003 2.13762C5.29991 2.83854 4.98316 3.79113 5.05753 4.81977C5.20495 6.84914 6.74923 8.5 8.50003 8.5C10.2508 8.5 11.7925 6.84947 11.9422 4.82043C12.0176 3.80109 11.6988 2.85049 11.0447 2.14426Z" fill="#B3B3B3"/>
<path d="M14.3439 15.9375H2.65644C2.50346 15.9395 2.35196 15.9074 2.21297 15.8434C2.07397 15.7795 1.95097 15.6854 1.85292 15.5679C1.6371 15.31 1.55011 14.9577 1.61453 14.6014C1.89476 13.0468 2.76933 11.741 4.14394 10.8242C5.36515 10.0104 6.91208 9.5625 8.50019 9.5625C10.0883 9.5625 11.6352 10.0107 12.8564 10.8242C14.231 11.7406 15.1056 13.0465 15.3859 14.6011C15.4503 14.9573 15.3633 15.3096 15.1475 15.5676C15.0494 15.6851 14.9265 15.7793 14.7875 15.8433C14.6485 15.9073 14.4969 15.9394 14.3439 15.9375V15.9375Z" fill="#B3B3B3"/>
</svg>
