<svg width="23" height="25" viewBox="0 0 23 25" fill="none" xmlns="http://www.w3.org/2000/svg">
<path d="M11.5 2.28223C6.33982 2.28223 2.15625 6.71032 2.15625 12.1721C2.15625 17.6339 6.33982 22.0619 11.5 22.0619C16.6602 22.0619 20.8438 17.6339 20.8438 12.1721C20.8438 6.71032 16.6602 2.28223 11.5 2.28223ZM15.8125 13.6936H11.5C11.3094 13.6936 11.1266 13.6135 10.9918 13.4708C10.857 13.3281 10.7812 13.1346 10.7812 12.9328V6.08602C10.7812 5.88425 10.857 5.69075 10.9918 5.54808C11.1266 5.40541 11.3094 5.32526 11.5 5.32526C11.6906 5.32526 11.8734 5.40541 12.0082 5.54808C12.143 5.69075 12.2188 5.88425 12.2188 6.08602V12.1721H15.8125C16.0031 12.1721 16.1859 12.2522 16.3207 12.3949C16.4555 12.5376 16.5312 12.7311 16.5312 12.9328C16.5312 13.1346 16.4555 13.3281 16.3207 13.4708C16.1859 13.6135 16.0031 13.6936 15.8125 13.6936Z" fill="#B3B3B3"/>
</svg>
