<svg width="16" height="16" viewBox="0 0 16 16" fill="none" xmlns="http://www.w3.org/2000/svg">
<g clip-path="url(#clip0_336_5884)">
<path d="M15.3336 2.66684V6.66684M15.3336 6.66684H11.3336M15.3336 6.66684L12.2469 3.76017C11.3273 2.84 10.1336 2.24363 8.84555 2.06093C7.55753 1.87824 6.24503 2.11912 5.10581 2.74726C3.9666 3.37541 3.06241 4.35681 2.52949 5.54355C1.99656 6.7303 1.86378 8.0581 2.15116 9.32688C2.43853 10.5957 3.13048 11.7367 4.12275 12.578C5.11502 13.4192 6.35383 13.9153 7.65253 13.9912C8.95122 14.0672 10.2394 13.719 11.323 12.9992C12.4066 12.2793 13.2269 11.2268 13.6602 10.0002" stroke="#F6F6F6" stroke-width="1.6" stroke-linecap="round" stroke-linejoin="round"/>
</g>
<defs>
<clipPath id="clip0_336_5884">
<rect width="16" height="16" fill="white"/>
</clipPath>
</defs>
</svg>
