<svg width="16" height="16" viewBox="0 0 16 16" fill="none" xmlns="http://www.w3.org/2000/svg">
<g clip-path="url(#clip0_1402_4918)">
<path d="M15.3331 2.66666V6.66666M15.3331 6.66666H11.3331M15.3331 6.66666L12.2464 3.75999C11.3268 2.83981 10.1331 2.24345 8.84506 2.06075C7.55704 1.87806 6.24454 2.11893 5.10533 2.74708C3.96612 3.37523 3.06192 4.35662 2.529 5.54337C1.99608 6.73011 1.8633 8.05792 2.15067 9.32669C2.43804 10.5955 3.12999 11.7365 4.12226 12.5778C5.11453 13.4191 6.35335 13.9151 7.65204 13.991C8.95073 14.067 10.2389 13.7188 11.3225 12.999C12.4061 12.2791 13.2264 11.2266 13.6598 9.99999" stroke="#EFEFEF" stroke-width="1.6" stroke-linecap="round" stroke-linejoin="round"/>
</g>
<defs>
<clipPath id="clip0_1402_4918">
<rect width="16" height="16" fill="white"/>
</clipPath>
</defs>
</svg>
