<svg width="20" height="20" viewBox="0 0 20 20" fill="none" xmlns="http://www.w3.org/2000/svg">
<path d="M15.8337 8.33325V9.99992C15.8337 11.547 15.2191 13.0307 14.1251 14.1247C13.0312 15.2187 11.5474 15.8333 10.0003 15.8333M10.0003 15.8333C8.45323 15.8333 6.9695 15.2187 5.87554 14.1247C4.78157 13.0307 4.16699 11.547 4.16699 9.99992V8.33325M10.0003 15.8333V19.1666M6.66699 19.1666H13.3337M10.0003 0.833252C9.33728 0.833252 8.7014 1.09664 8.23256 1.56548C7.76372 2.03433 7.50033 2.67021 7.50033 3.33325V9.99992C7.50033 10.663 7.76372 11.2988 8.23256 11.7677C8.7014 12.2365 9.33728 12.4999 10.0003 12.4999C10.6634 12.4999 11.2993 12.2365 11.7681 11.7677C12.2369 11.2988 12.5003 10.663 12.5003 9.99992V3.33325C12.5003 2.67021 12.2369 2.03433 11.7681 1.56548C11.2993 1.09664 10.6634 0.833252 10.0003 0.833252Z" stroke="#1D1D1D" stroke-linecap="round" stroke-linejoin="round"/>
</svg>
