<?xml version="1.0" standalone="no"?>
<!DOCTYPE svg PUBLIC "-//W3C//DTD SVG 20010904//EN"
 "http://www.w3.org/TR/2001/REC-SVG-20010904/DTD/svg10.dtd">
<svg version="1.0" xmlns="http://www.w3.org/2000/svg"
 width="450.000000pt" height="450.000000pt" viewBox="0 0 450.000000 450.000000"
 preserveAspectRatio="xMidYMid meet">

<g transform="translate(0.000000,450.000000) scale(0.100000,-0.100000)"
fill="#000000" stroke="none">
<path d="M1575 4060 c-3 -6 1 -7 9 -4 18 7 21 14 7 14 -6 0 -13 -4 -16 -10z"/>
<path d="M1730 4059 c0 -5 9 -9 20 -9 11 0 20 2 20 4 0 2 -9 6 -20 9 -11 3
-20 1 -20 -4z"/>
<path d="M1640 4050 c0 -5 9 -10 20 -10 11 0 20 5 20 10 0 6 -9 10 -20 10 -11
0 -20 -4 -20 -10z"/>
<path d="M1504 4035 c-10 -8 -14 -14 -9 -15 15 0 40 18 34 24 -3 3 -14 -1 -25
-9z"/>
<path d="M1555 4029 c-4 -6 -5 -13 -2 -16 8 -7 47 7 47 18 0 13 -37 11 -45 -2z"/>
<path d="M1785 4031 c-6 -11 33 -26 43 -16 4 3 0 10 -8 15 -19 12 -27 12 -35
1z"/>
<path d="M1430 4020 c0 -5 7 -7 15 -4 8 4 15 8 15 10 0 2 -7 4 -15 4 -8 0 -15
-4 -15 -10z"/>
<path d="M1690 4020 c0 -5 7 -10 15 -10 8 0 18 0 22 -1 4 0 9 4 11 10 2 6 -8
11 -22 11 -14 0 -26 -4 -26 -10z"/>
<path d="M1870 4020 c0 -9 31 -30 44 -30 16 0 3 18 -19 28 -14 7 -25 8 -25 2z"/>
<path d="M1594 3994 c-15 -16 -29 -23 -33 -17 -6 11 -23 6 -71 -22 -22 -13
-23 -15 -5 -15 16 0 17 -2 6 -9 -9 -6 -24 -5 -39 0 -16 6 -29 6 -38 -2 -16
-13 -19 -33 -5 -24 5 3 12 -4 16 -15 3 -11 10 -20 14 -20 5 0 7 -13 5 -29 -3
-22 1 -31 14 -34 12 -3 11 -5 -5 -6 -22 -1 -34 -21 -13 -21 6 0 10 -4 10 -9 0
-5 -9 -7 -20 -4 -14 4 -20 0 -20 -11 0 -9 8 -16 19 -16 16 0 19 -7 19 -45 0
-25 -3 -43 -6 -41 -12 7 -39 -18 -44 -39 -2 -14 -10 -19 -26 -17 -17 3 -22 -2
-22 -21 0 -32 -10 -40 -26 -19 -18 24 -44 0 -27 -26 9 -15 7 -18 -8 -19 -14
-1 -19 5 -19 23 0 13 -5 24 -10 24 -18 0 -24 -32 -12 -63 9 -24 9 -33 0 -38
-19 -12 -29 0 -21 29 6 24 4 25 -10 14 -14 -12 -15 -11 -4 17 6 17 8 34 3 38
-9 10 -38 -26 -30 -38 3 -5 -3 -9 -12 -9 -14 0 -15 3 -6 12 17 17 15 48 -3 48
-13 0 -15 9 -11 41 2 22 11 48 20 57 8 10 13 30 12 45 -2 15 1 30 6 33 6 4 5
10 -3 15 -11 7 -10 9 4 9 9 0 17 7 17 15 0 8 -4 15 -10 15 -5 0 -10 4 -10 9 0
5 9 7 21 4 17 -5 19 -2 14 20 -6 21 1 33 35 66 23 23 37 41 31 41 -22 0 -141
-131 -177 -196 -105 -187 -109 -382 -12 -575 38 -77 58 -99 355 -393 173 -171
333 -322 356 -336 22 -13 66 -30 97 -37 l55 -13 -60 5 c-76 7 -135 36 -181 88
-34 39 -35 39 -18 9 21 -37 69 -84 97 -95 9 -3 17 -12 17 -18 0 -8 -4 -9 -13
0 -11 8 -16 5 -25 -14 -6 -14 -15 -25 -20 -25 -4 0 -9 -20 -10 -45 -3 -67 21
-87 146 -119 56 -14 104 -26 106 -26 2 0 1 11 -2 25 -3 18 0 25 11 25 9 0 18
-4 21 -9 3 -4 18 -11 33 -14 21 -4 32 -16 45 -46 11 -28 13 -41 5 -41 -6 0 2
-14 19 -31 l31 -31 141 -5 c138 -6 142 -5 196 21 31 15 73 48 96 73 66 75 144
253 111 253 -18 0 -33 51 -26 91 5 26 23 56 61 97 30 33 54 65 54 71 0 6 13
11 28 11 16 0 31 3 35 6 9 10 -4 35 -15 28 -6 -4 -5 -10 3 -15 10 -6 7 -8 -9
-6 -12 0 -22 2 -22 3 0 2 13 31 29 66 62 134 78 275 42 377 -18 51 -20 54 -56
56 -41 2 -51 -10 -41 -50 4 -16 11 -22 21 -19 11 5 15 -1 15 -25 0 -16 9 -54
19 -83 38 -104 39 -98 -17 -98 -53 0 -111 19 -132 45 -10 12 -16 13 -27 4 -24
-21 -24 -4 3 71 31 89 41 189 24 249 -10 38 -48 79 -318 346 -263 260 -409
395 -425 395 -2 0 -4 -7 -4 -15 0 -8 4 -12 9 -9 4 3 8 0 8 -5 0 -6 7 -11 15
-11 8 0 15 -9 15 -19 0 -11 5 -23 10 -26 6 -4 8 -10 5 -15 -3 -5 0 -12 6 -16
8 -4 9 -3 5 4 -4 8 -2 10 8 6 9 -3 12 -12 9 -21 -4 -11 -2 -14 5 -9 7 4 12 2
12 -3 0 -6 -7 -11 -15 -11 -19 0 -20 -34 -1 -50 11 -8 20 -9 33 -1 10 6 12 11
6 11 -7 0 -13 5 -13 12 0 21 25 -14 39 -54 19 -59 21 -78 7 -78 -18 0 -26 -33
-14 -54 12 -22 23 -20 35 6 6 15 12 18 17 10 4 -7 2 -12 -3 -12 -6 0 -11 -7
-11 -15 0 -8 5 -15 10 -15 6 0 10 4 10 8 0 5 7 9 15 9 11 0 12 -4 4 -13 -15
-18 -7 -55 14 -68 13 -8 20 -8 25 1 7 10 12 10 27 -1 18 -13 18 -14 -1 -24
-10 -5 -31 -9 -47 -7 -15 2 -25 -1 -22 -5 3 -5 1 -11 -4 -14 -14 -9 -34 22
-27 41 4 10 4 14 0 10 -4 -4 -14 -1 -22 6 -13 10 -14 9 -7 -3 5 -9 0 -8 -14 4
-15 14 -24 17 -32 9 -18 -18 -39 -3 -39 27 0 28 -24 48 -35 30 -10 -16 -45 8
-45 30 0 10 -8 24 -17 29 -10 6 -14 11 -10 11 5 0 1 7 -7 16 -15 15 -22 44
-11 44 4 0 19 -7 35 -15 27 -14 30 -14 39 4 7 13 6 24 -3 37 -14 18 -15 18
-33 1 -11 -9 -24 -17 -29 -17 -5 0 -1 5 9 11 9 5 17 14 17 19 0 16 -22 11 -37
-7 -13 -17 -13 -16 -4 2 5 12 9 30 8 40 -1 13 3 19 13 17 58 -14 70 -11 70 13
0 18 -7 26 -25 31 -16 4 -25 13 -25 26 0 10 -4 16 -10 13 -5 -3 -10 -1 -10 4
0 6 4 11 9 11 14 0 32 -26 23 -35 -4 -5 -2 -5 4 -2 17 10 11 48 -9 61 -13 8
-19 8 -25 -1 -4 -6 -21 -14 -37 -18 -21 -5 -26 -4 -16 3 8 6 11 17 7 27 -5 13
-15 16 -48 12 -23 -3 -50 0 -59 6 -14 9 -22 7 -38 -7 -21 -19 -71 -16 -71 4 0
5 -8 7 -17 4 -14 -5 -15 -4 -4 4 14 10 7 32 -9 32 -5 0 -21 -12 -36 -26z m349
-144 c3 -11 1 -18 -4 -14 -5 3 -9 12 -9 20 0 20 7 17 13 -6z m254 -372 c-3 -8
-6 -5 -6 6 -1 11 2 17 5 13 3 -3 4 -12 1 -19z m63 2 c0 -5 -4 -10 -10 -10 -5
0 -10 5 -10 10 0 6 5 10 10 10 6 0 10 -4 10 -10z m-5 -40 c-7 -21 4 -27 21
-10 6 6 21 12 34 15 12 2 19 1 16 -3 -4 -4 -8 -5 -9 -3 -1 2 -12 -1 -25 -8
-12 -7 -20 -16 -18 -20 3 -5 -5 -8 -17 -7 -23 1 -29 23 -12 43 15 18 17 16 10
-7z m82 -26 c-3 -4 0 -16 8 -28 22 -30 17 -45 -5 -17 -22 26 -26 51 -8 51 6 0
8 -3 5 -6z m93 -94 c0 -5 -4 -10 -10 -10 -5 0 -10 5 -10 10 0 6 5 10 10 10 6
0 10 -4 10 -10z m10 -81 c0 -6 -4 -7 -10 -4 -5 3 -10 11 -10 16 0 6 5 7 10 4
6 -3 10 -11 10 -16z m300 -564 l25 -15 -30 6 c-33 7 -58 24 -34 24 7 -1 25 -7
39 -15z m-723 -271 c-3 -3 -12 -4 -19 -1 -8 3 -5 6 6 6 11 1 17 -2 13 -5z
m-122 -84 c3 -5 1 -10 -4 -10 -6 0 -11 5 -11 10 0 6 2 10 4 10 3 0 8 -4 11
-10z m62 -40 c14 -11 22 -20 18 -20 -4 0 -18 9 -32 20 -14 11 -22 20 -18 20 4
0 18 -9 32 -20z m63 -45 c21 -25 1 -31 -22 -7 -18 18 -19 22 -6 22 8 0 21 -7
28 -15z m157 -101 c-7 -7 -37 7 -37 17 0 6 9 5 21 -1 11 -7 19 -14 16 -16z"/>
<path d="M1390 3985 c-8 -9 -8 -15 -2 -15 12 0 26 19 19 26 -2 2 -10 -2 -17
-11z"/>
<path d="M1435 3989 c-11 -17 0 -20 21 -4 17 13 17 14 2 15 -9 0 -20 -5 -23
-11z"/>
<path d="M1482 3988 c-15 -15 -15 -28 -1 -28 11 0 39 24 39 34 0 11 -26 6 -38
-6z"/>
<path d="M1675 3990 c-3 -6 1 -7 9 -4 18 7 21 14 7 14 -6 0 -13 -4 -16 -10z"/>
<path d="M1931 3984 c0 -11 3 -14 6 -6 3 7 2 16 -1 19 -3 4 -6 -2 -5 -13z"/>
<path d="M1710 3979 c0 -5 5 -7 10 -4 6 3 10 8 10 11 0 2 -4 4 -10 4 -5 0 -10
-5 -10 -11z"/>
<path d="M1327 3963 c-12 -12 -7 -22 8 -17 8 4 15 10 15 15 0 11 -14 12 -23 2z"/>
<path d="M1380 3930 c-6 -11 -7 -20 -2 -20 10 0 32 21 32 32 0 16 -19 8 -30
-12z"/>
<path d="M1346 3924 c-9 -24 -7 -28 9 -14 17 14 20 30 6 30 -5 0 -12 -7 -15
-16z"/>
<path d="M1306 3904 c-4 -10 -1 -14 6 -12 15 5 23 28 10 28 -5 0 -13 -7 -16
-16z"/>
<path d="M1270 3885 c0 -8 5 -15 10 -15 6 0 10 7 10 15 0 8 -4 15 -10 15 -5 0
-10 -7 -10 -15z"/>
<path d="M1237 3863 c-12 -11 -8 -23 8 -23 8 0 15 7 15 15 0 16 -12 20 -23 8z"/>
<path d="M1392 3718 c3 -7 13 -15 22 -16 12 -3 17 1 14 10 -3 7 -13 15 -22 16
-12 3 -17 -1 -14 -10z"/>
<path d="M2025 3720 c-9 -15 4 -50 20 -50 19 0 27 17 20 40 -7 21 -30 27 -40
10z"/>
<path d="M1360 3693 c0 -25 15 -38 25 -22 4 6 0 18 -9 27 -15 15 -16 15 -16
-5z"/>
<path d="M1183 3668 c-19 -25 -24 -38 -14 -38 11 0 35 39 28 46 -2 3 -9 -1
-14 -8z"/>
<path d="M1325 3670 c-7 -12 2 -30 16 -30 12 0 12 27 0 35 -5 3 -12 1 -16 -5z"/>
<path d="M1196 3644 c-9 -22 3 -32 14 -14 12 19 12 30 1 30 -5 0 -12 -7 -15
-16z"/>
<path d="M1290 3640 c0 -11 5 -20 10 -20 6 0 10 9 10 20 0 11 -4 20 -10 20 -5
0 -10 -9 -10 -20z"/>
<path d="M1227 3643 c-10 -9 -8 -33 2 -33 5 0 11 9 14 20 5 20 -3 26 -16 13z"/>
<path d="M1253 3635 c-8 -22 6 -33 17 -15 13 20 12 30 0 30 -6 0 -13 -7 -17
-15z"/>
<path d="M2215 3520 c-3 -5 -1 -10 4 -10 6 0 11 5 11 10 0 6 -2 10 -4 10 -3 0
-8 -4 -11 -10z"/>
<path d="M2735 3219 c-7 -10 21 -38 40 -39 5 0 4 -5 -3 -12 -7 -7 -12 -16 -12
-21 0 -5 9 2 20 16 22 27 26 47 10 47 -5 0 -10 -4 -10 -10 0 -5 -4 -10 -10
-10 -5 0 -10 6 -10 14 0 19 -17 29 -25 15z"/>
<path d="M3069 2927 c6 -16 11 -42 11 -58 0 -17 4 -28 9 -24 16 9 39 -23 34
-48 -4 -18 0 -26 16 -30 12 -3 21 -13 21 -24 0 -32 44 -123 60 -123 12 0 14
-10 12 -45 l-4 -46 -42 5 c-22 2 -44 5 -48 5 -5 1 -8 8 -8 16 0 8 -4 15 -9 15
-5 0 -24 12 -42 27 l-32 28 29 -45 c27 -40 29 -50 28 -129 -2 -146 -52 -306
-134 -428 -33 -50 -50 -67 -65 -66 -11 2 -69 5 -129 8 l-108 6 -67 -40 c-36
-22 -83 -47 -103 -57 -21 -10 -38 -21 -38 -25 0 -3 -38 -5 -85 -2 l-85 4 6
-63 c4 -35 11 -70 15 -80 13 -25 85 -12 132 24 l37 30 1 -24 c0 -32 69 -84
138 -104 48 -14 73 -15 171 -7 94 9 143 20 268 61 115 38 152 46 152 36 0 -8
-10 -52 -22 -97 -31 -117 -29 -200 7 -266 41 -74 98 -114 240 -165 18 -7 18
-8 3 -17 -25 -14 -143 -24 -135 -12 13 21 -24 35 -150 59 -70 14 -162 31 -203
39 -41 8 -91 17 -110 20 -64 12 -124 23 -255 49 -203 40 -226 45 -295 62 -44
11 -117 18 -225 19 -144 2 -247 7 -445 20 -36 2 -121 7 -190 10 -69 4 -160 11
-203 16 -55 7 -82 7 -91 -1 -20 -16 -31 -151 -14 -161 18 -12 -64 -11 -256 2
-88 5 -163 6 -167 2 -9 -9 -59 -367 -59 -417 0 -19 8 -27 33 -35 17 -6 264
-56 547 -111 1030 -202 882 -183 1803 -230 372 -19 584 -27 596 -21 25 14 78
430 56 447 -8 6 -92 25 -187 43 -95 18 -179 34 -185 36 -33 11 -5 23 92 42
157 31 225 73 225 139 0 20 -63 84 -82 83 -7 0 -3 -5 10 -11 26 -13 27 -18 7
-44 -13 -17 -14 -17 -15 -1 0 9 6 17 13 17 6 1 -1 8 -16 16 -15 8 -25 20 -21
26 4 6 -1 8 -15 3 -12 -4 -21 -2 -21 4 0 6 -3 10 -7 9 -5 -1 -18 3 -31 10 -12
7 -27 10 -32 7 -6 -3 -10 -1 -10 5 0 6 -4 8 -10 5 -5 -3 -10 -2 -10 2 0 5 -9
14 -21 21 -12 8 -18 9 -15 3 4 -7 1 -8 -8 -5 -9 3 -14 11 -13 17 1 7 -5 11
-13 9 -8 -2 -12 0 -8 3 4 4 1 20 -7 36 -22 41 -18 111 10 218 14 52 25 117 25
143 0 35 7 59 25 86 28 43 97 259 90 283 -3 8 4 42 15 75 43 124 44 299 2 332
-9 6 -13 12 -9 12 10 0 -171 174 -191 183 -10 5 -22 18 -27 29 -6 12 -18 25
-27 30 -10 4 -26 12 -35 17 -10 4 -19 17 -21 28 -2 11 -23 40 -48 64 -41 40
-44 42 -35 16z m204 -1497 c4 -17 3 -19 -9 -9 -8 6 -14 18 -14 26 0 20 16 8
23 -17z m-45 -55 c-3 -3 -9 2 -12 12 -6 14 -5 15 5 6 7 -7 10 -15 7 -18z m52
-37 c0 -12 -6 -9 -26 13 -19 22 -19 22 4 8 12 -8 22 -17 22 -21z m50 -34 c0
-2 -9 0 -20 6 -11 6 -20 13 -20 16 0 2 9 0 20 -6 11 -6 20 -13 20 -16z m-1760
-29 c322 -17 415 -24 407 -31 -4 -5 -489 20 -712 35 -203 15 -8 12 305 -4z
m2020 -69 c0 -23 -41 -46 -80 -46 l-35 0 41 19 c23 10 45 24 48 30 10 16 26
14 26 -3z m-1197 -13 c-7 -2 -19 -2 -25 0 -7 3 -2 5 12 5 14 0 19 -2 13 -5z
m54 -9 c-3 -3 -12 -4 -19 -1 -8 3 -5 6 6 6 11 1 17 -2 13 -5z m100 -20 c-3 -3
-12 -4 -19 -1 -8 3 -5 6 6 6 11 1 17 -2 13 -5z m50 -10 c-3 -3 -12 -4 -19 -1
-8 3 -5 6 6 6 11 1 17 -2 13 -5z m100 -20 c-3 -3 -12 -4 -19 -1 -8 3 -5 6 6 6
11 1 17 -2 13 -5z m260 -50 c-3 -3 -12 -4 -19 -1 -8 3 -5 6 6 6 11 1 17 -2 13
-5z"/>
<path d="M3041 2744 c0 -11 3 -14 6 -6 3 7 2 16 -1 19 -3 4 -6 -2 -5 -13z"/>
<path d="M3024 2691 c-4 -17 -11 -34 -15 -37 -11 -7 -12 -24 -1 -24 11 0 36
80 28 88 -3 3 -9 -9 -12 -27z"/>
<path d="M2903 2643 c15 -2 39 -2 55 0 15 2 2 4 -28 4 -30 0 -43 -2 -27 -4z"/>
<path d="M1981 1866 c10 -9 79 -14 79 -5 0 5 -19 9 -42 9 -23 0 -39 -2 -37 -4z"/>
</g>
</svg>
