
<svg width="20" height="20" viewBox="0 0 71 65" fill="none" xmlns="http://www.w3.org/2000/svg">
<path d="M47.333 10.8333H53.2497C54.8189 10.8333 56.3238 11.404 57.4334 12.4198C58.543 13.4356 59.1663 14.8134 59.1663 16.25V54.1666C59.1663 55.6032 58.543 56.981 57.4334 57.9968C56.3238 59.0126 54.8189 59.5833 53.2497 59.5833H17.7497C16.1805 59.5833 14.6755 59.0126 13.566 57.9968C12.4564 56.981 11.833 55.6032 11.833 54.1666V16.25C11.833 14.8134 12.4564 13.4356 13.566 12.4198C14.6755 11.404 16.1805 10.8333 17.7497 10.8333H23.6663M26.6247 5.41663H44.3747C46.0085 5.41663 47.333 6.62919 47.333 8.12496V13.5416C47.333 15.0374 46.0085 16.25 44.3747 16.25H26.6247C24.9908 16.25 23.6663 15.0374 23.6663 13.5416V8.12496C23.6663 6.62919 24.9908 5.41663 26.6247 5.41663Z" stroke="currentColor" stroke-width="7" stroke-linecap="round" stroke-linejoin="round"/>
</svg>