<svg width="20" height="20" viewBox="0 0 20 20" fill="none" xmlns="http://www.w3.org/2000/svg">
<g clip-path="url(#clip0_1042_4830)">
<path d="M0.833008 0.833329L19.1663 19.1667M7.49967 7.5V10C7.50011 10.4941 7.64697 10.9771 7.9217 11.3878C8.19643 11.7985 8.58672 12.1186 9.04326 12.3076C9.49981 12.4967 10.0021 12.5462 10.4868 12.4499C10.9715 12.3536 11.4167 12.1159 11.7663 11.7667M12.4997 7.78333V3.33333C12.5003 2.71335 12.2705 2.11526 11.855 1.65516C11.4394 1.19506 10.8678 0.90578 10.2509 0.843473C9.63408 0.781166 9.0161 0.95028 8.51694 1.31799C8.01777 1.68569 7.67305 2.22575 7.54967 2.83333M14.1663 14.125C13.3528 14.9553 12.3098 15.5237 11.171 15.7572C10.0322 15.9906 8.8497 15.8785 7.77509 15.4352C6.70047 14.992 5.78281 14.2377 5.13982 13.2693C4.49682 12.3009 4.15784 11.1624 4.16634 10V8.33333M15.833 8.33333V10C15.8327 10.3437 15.802 10.6867 15.7413 11.025M9.99967 15.8333V19.1667M6.66634 19.1667H13.333" stroke="#1D1D1D" stroke-linecap="round" stroke-linejoin="round"/>
</g>
<defs>
<clipPath id="clip0_1042_4830">
<rect width="20" height="20" fill="white"/>
</clipPath>
</defs>
</svg>
