<svg width="16" height="16" viewBox="0 0 16 16" fill="none" xmlns="http://www.w3.org/2000/svg">
<g clip-path="url(#clip0_336_5885)">
<path d="M0.666992 2.6668V6.6668M0.666992 6.6668H4.66699M0.666992 6.6668L3.76033 3.76013C4.68093 2.84108 5.87529 2.24611 7.16344 2.06487C8.45159 1.88364 9.76375 2.12595 10.9022 2.7553C12.0407 3.38466 12.9438 4.36696 13.4754 5.5542C14.0071 6.74143 14.1385 8.06929 13.8498 9.3377C13.5612 10.6061 12.8681 11.7464 11.8751 12.5866C10.882 13.4269 9.64282 13.9217 8.34414 13.9964C7.04545 14.0712 5.75764 13.7218 4.67476 13.001C3.59188 12.2802 2.77259 11.227 2.34033 10.0001" stroke="#F6F6F6" stroke-width="1.6" stroke-linecap="round" stroke-linejoin="round"/>
</g>
<defs>
<clipPath id="clip0_336_5885">
<rect width="16" height="16" fill="white"/>
</clipPath>
</defs>
</svg>
