<svg width="128" height="80" viewBox="0 0 128 80" fill="none" xmlns="http://www.w3.org/2000/svg">
<rect x="56" y="20" width="16" height="40" rx="8" fill="white"/>
<rect x="56" y="20" width="16" height="40" rx="8" fill="white"/>
<rect x="112" y="16" width="16" height="48" rx="8" fill="white"/>
<rect x="112" y="16" width="16" height="48" rx="8" fill="white"/>
<rect x="84" width="16" height="80" rx="8" fill="white"/>
<rect x="84" width="16" height="80" rx="8" fill="white"/>
<rect y="20" width="16" height="40" rx="8" fill="#FEFEFE"/>
<rect x="28" y="8" width="16" height="64" rx="8" fill="white"/>
<rect x="56" y="20" width="16" height="40" rx="8" fill="#FF8C66" fill-opacity="0.31"/>
<rect x="112" y="16" width="16" height="48" rx="8" fill="white"/>
<rect x="112" y="16" width="16" height="48" rx="8" fill="#FF8C66" fill-opacity="0.68"/>
<rect x="84" width="16" height="80" rx="8" fill="#FF8C66"/>
<rect y="20" width="16" height="40" rx="8" fill="#FF8C66"/>
<rect x="28" y="8" width="16" height="64" rx="8" fill="#FF8C66" fill-opacity="0.69"/>
</svg>
