<svg width="32" height="20" viewBox="0 0 32 20" fill="none" xmlns="http://www.w3.org/2000/svg">
<rect x="14" y="5" width="4" height="10" rx="2" fill="white"/>
<rect x="14" y="5" width="4" height="10" rx="2" fill="white"/>
<rect x="28" y="4" width="4" height="12" rx="2" fill="white"/>
<rect x="28" y="4" width="4" height="12" rx="2" fill="white"/>
<rect x="21" width="4" height="20" rx="2" fill="white"/>
<rect x="21" width="4" height="20" rx="2" fill="white"/>
<rect y="5" width="4" height="10" rx="2" fill="#FEFEFE"/>
<rect x="7" y="2" width="4" height="16" rx="2" fill="white"/>
<rect x="14" y="5" width="4" height="10" rx="2" fill="#FF8C66" fill-opacity="0.31"/>
<rect x="28" y="4" width="4" height="12" rx="2" fill="white"/>
<rect x="28" y="4" width="4" height="12" rx="2" fill="#FF8C66" fill-opacity="0.68"/>
<rect x="21" width="4" height="20" rx="2" fill="#FF8C66"/>
<rect y="5" width="4" height="10" rx="2" fill="#FF8C66"/>
<rect x="7" y="2" width="4" height="16" rx="2" fill="#FF8C66" fill-opacity="0.69"/>
</svg>
